<svg width="70" height="85" viewBox="0 0 70 85" fill="none" xmlns="http://www.w3.org/2000/svg">
<path d="M14 54.6C13.8 54.6 13.6 54.5 13.4 54.4C12.5 53.8 11.5 52.5 10.6 51.3C9.9 50.3 9.5 49.2 9.2 48.2C9.1 47.8 8.9 47.4 8.8 47L8.6 46.6C8.2 45.7 7.8 44.6 7.7 43.5C7.7 43 7.9 42.5 8.4 42.3C8.9 42.1 9.4 42.3 9.7 42.7C10.3 43 10.5 43.6 10.3 44.2C10.3 44.3 10.2 44.3 10.2 44.4C10.3 44.8 10.5 45.3 10.7 45.7L10.9 46.1C11.1 46.5 11.2 46.9 11.4 47.4C11.7 48.3 12 49.2 12.5 49.9C12.9 50.5 14 52 14.7 52.4C15.2 52.7 15.3 53.4 15 54C14.7 54.5 14.3 54.6 14 54.6Z" fill="black"/>
<path d="M19.1 84.5C18.9 84.5 18.7 84.5 18.4 84.4C17.9 84.2 17.5 83.9 17.2 83.3C16.7 83.6 16.1 83.8 15.5 83.6C13.7 83.1 13.9 80.4 14.1 78.2C14.1 77.9 14.1 77.6 14.1 77.5C14.1 75.8 13.9 74.2 13.7 72.6C13.6 71.9 13.5 71.2 13.4 70.4C13.3 69.4 13.1 68.3 13 67.2C12.7 64.9 12.3 62.6 12.4 60.3C12.5 58.4 12.7 56.4 12.9 54.6C13.2 51.9 13.5 49.1 13.4 46.3C13.4 45.7 13.9 45.2 14.5 45.1C15.1 45.1 15.6 45.6 15.7 46.2C15.8 49.1 15.5 51.9 15.2 54.7C15 56.5 14.8 58.5 14.7 60.3C14.6 62.4 14.9 64.6 15.3 66.8C15.5 67.9 15.6 69 15.7 70.1C15.8 70.8 15.9 71.5 15.9 72.2C16.1 73.9 16.3 75.6 16.3 77.4C16.3 77.6 16.3 77.9 16.2 78.3C16.2 78.8 16.1 80 16.1 80.8C16.3 80.5 16.5 80.1 16.5 79.8C16.6 79.2 17.1 78.7 17.7 78.8C18.3 78.8 18.8 79.4 18.7 80C18.6 81.1 18.8 81.7 18.9 81.9C19.2 81.5 19.5 80.9 19.6 80.6C19.7 80.5 19.7 80.3 19.8 80.2C20 79.8 20.4 79.6 20.8 79.6C21.2 79.6 21.6 79.9 21.8 80.3C21.8 80.4 21.9 80.5 21.9 80.5C22 80.1 22.3 79.8 22.7 79.6C23.1 79.5 23.6 79.6 23.8 79.9C23.8 79.1 23.4 77.8 23.2 77C23.1 76.7 23 76.4 23 76.1C22.5 74.2 22.3 72.2 22.3 70.2C22.3 69.8 22.3 69.5 22.3 69.1C22.3 68.5 22.4 67.8 22.2 67.3C22.1 66.8 21.9 66.4 21.8 65.9C21.6 65.4 21.4 64.9 21.3 64.3C21.2 64 21.2 63.7 21.1 63.4C21 62.9 20.9 62.4 20.7 61.9C20.6 61.8 20.6 61.7 20.5 61.6C20.3 61.2 19.9 60.7 20 60C20 59 20.5 58.6 20.8 58.4C21.6 57.9 22.5 58.4 23.2 58.7C23.3 58.8 23.5 58.8 23.6 58.9C23.9 59 24.2 59.2 24.5 59.3C25.9 60 27.4 60.7 28.7 60.7C29.4 60.7 29.8 60.4 30.6 59.8L30.9 59.5C31.3 59.2 31.7 58.9 32.2 58.6C32.8 58.2 33.4 57.9 33.7 57.4C34.1 56.9 34.8 56.8 35.3 57.2C35.8 57.6 35.9 58.3 35.5 58.8C34.9 59.6 34.1 60.1 33.4 60.5C33 60.7 32.7 61 32.4 61.2L32.1 61.5C31.2 62.2 30.3 63 28.7 63C26.9 63 25.1 62.1 23.5 61.3C23.3 61.2 23 61.1 22.8 61C23.1 61.7 23.2 62.4 23.3 63C23.3 63.3 23.4 63.5 23.4 63.8C23.5 64.2 23.6 64.6 23.8 65.1C24 65.7 24.2 66.2 24.3 66.9C24.5 67.7 24.4 68.5 24.4 69.2C24.4 69.5 24.4 69.8 24.4 70.1C24.4 71.9 24.7 73.7 25.1 75.5C25.2 75.7 25.2 76 25.3 76.3C25.8 78.2 26.2 79.9 25.8 81.1C25.5 81.8 25 82.3 24.3 82.4C24.1 82.4 24 82.4 23.8 82.4C23.6 82.8 23.4 83.1 23.1 83.4C22.6 83.8 22.1 83.9 21.5 83.8C21.1 83.7 20.8 83.5 20.6 83.3C20.3 84 19.8 84.5 19.1 84.5Z" fill="black"/>
<path d="M41.1 79C40.3 79 39.6 78.5 39.2 77.8C39 78.1 38.7 78.4 38.4 78.6C37.8 79 36.8 79.2 35.4 78.4C33.5 77.3 33.6 75 33.7 73.3C33.7 73 33.7 72.7 33.7 72.4C33.6 72.3 33.5 72.3 33.4 72.2C32.2 70.9 32.6 67.7 33.6 62.6C33.9 61 34.2 59.4 34.2 58.8C34.2 58.2 34.7 57.7 35.3 57.6C35.9 57.6 36.4 58.1 36.4 58.7C36.4 59.5 36.2 60.9 35.8 63C35.4 65.1 34.6 69.3 35 70.5C35.2 70.5 35.4 70.6 35.5 70.7C35.7 70.9 35.9 71.2 35.9 71.5C36 72.1 35.9 72.8 35.9 73.4C35.8 75 35.8 76.1 36.5 76.5C36.7 76.6 37.1 76.8 37.2 76.7C37.5 76.5 37.8 75.7 37.8 74.5C37.8 74 38.2 73.5 38.7 73.4C39.2 73.3 39.8 73.5 40 74C40.1 74.2 40.2 74.5 40.3 74.8C40.4 75.2 40.7 76.1 41.1 76.6C41.2 76.1 41.1 75.4 41.1 74.9C41.1 74.4 41 73.9 41.1 73.6C40.7 73 40.3 72.4 40.1 71.8C38.9 68.8 39.5 65 40.4 61.7L40.7 60.5C41.7 56.8 42.6 53 41.8 49.3C41.6 49.1 41.5 48.8 41.5 48.4V48.3C41.4 47.8 41.6 47.4 41.9 47.1C42.3 46.8 42.8 46.8 43.2 47.1C43.4 47.2 43.8 47.6 43.7 48.2C44.8 52.5 43.7 57 42.7 60.9L42.4 62.1C41.7 65 41 68.3 42 70.8C42.2 71.3 42.6 71.9 43.1 72.6C43.9 73.7 44.7 74.9 44.9 76.2C45.1 77.5 44.5 78 44 78.1C43.6 78.2 43.2 78.2 42.9 77.9C42.7 78.3 42.3 78.6 41.8 78.8C41.5 78.9 41.3 79 41.1 79Z" fill="black"/>
<path d="M11.7 31C11.6 31 11.6 31 11.5 31C10.9 30.9 10.5 30.3 10.6 29.7L11.7 29.9L10.6 29.7C10.6 29.7 10.5 29.5 10.5 29.4C10.4 29.2 10.3 29 10.3 28.8C9.49999 26.4 9.2 23.2 9.7 20.4C10.1 18 10.7 13.5 14 12C14.3 11.8 14.7 11.9 15 12C15.3 12.2 15.5 12.5 15.6 12.9C15.7 14.2 15.5 15.6 15.3 16.9C15.2 17.5 15.1 18 15.1 18.5C14.8 21.4 14.9 23.6 15.3 25.5C15.3 25.6 15.4 25.8 15.4 26C15.5 26.4 15.7 27.6 15.9 28C16.4 28.3 16.6 28.9 16.3 29.5C16 30.1 15.4 30.3 14.8 30C13.7 29.5 13.4 28 13.1 26.5C13.1 26.3 13 26.2 13 26.1C12.5 23.9 12.5 21.5 12.8 18.4C12.9 17.8 12.9 17.2 13 16.7C13 16.5 13.1 16.3 13.1 16C12.3 17.5 12 19.6 11.8 20.9C11.4 23.3 11.7 26.2 12.4 28.2C12.4 28.3 12.5 28.5 12.6 28.6C12.8 29 13 29.5 12.9 30.1C12.7 30.6 12.2 31 11.7 31Z" fill="black"/>
<path d="M6.1 22H6C5.4 21.9 4.9 21.4 5 20.8C5.3 18.3 5.9 16.3 7 14.4C7.1 14.2 7.3 14 7.4 13.8L7.5 13.7C7.4 13.1 7.9 12.5 8.5 12.5C9.1 12.4 9.7 12.8 9.8 13.4C9.9 14.3 9.6 14.8 9.3 15.1C9.2 15.2 9.1 15.3 9 15.5C8 17.2 7.5 18.9 7.3 21.1C7.1 21.6 6.7 22 6.1 22Z" fill="black"/>
<path d="M2.9 22.5C2.8 22.5 2.8 22.5 2.7 22.5C2.1 22.4 1.7 21.8 1.7 21.2C1.7 20.9 1.8 20.5 1.8 20C2.1 17.8 2.4 14.7 3.9 12.9C4.3 12.4 5 12.4 5.5 12.8C6 13.2 6 13.9 5.6 14.4C4.5 15.6 4.2 18.4 4 20.2C3.9 20.7 3.9 21.1 3.8 21.4C4 22.1 3.5 22.5 2.9 22.5Z" fill="black"/>
<path d="M53.7 26.8C53.5 26.8 53.3 26.8 53.2 26.7C52.7 26.4 52.5 25.7 52.8 25.2C53.9 23.2 55 21.6 56.2 20.2L56.3 20.1C57 19.3 58.1 18 59.4 18.4C60 18.6 60.3 19.2 60.2 19.8C60 20.3 59.5 20.7 59 20.6C58.8 20.7 58.5 21 58 21.6L57.9 21.8C56.8 23.1 55.8 24.5 54.7 26.4C54.5 26.6 54.1 26.8 53.7 26.8Z" fill="black"/>
<path d="M28.6 17.3C28.5 17.3 28.4 17.3 28.4 17.3C27.8 17.2 27.4 16.6 27.5 16C27.8 14.6 27.8 13.4 27.7 11.9C27.7 11.7 27.7 11.5 27.7 11.3C27.7 11 27.7 10.2 27.5 9.90001C27.1 9.60001 26.9 9.00001 27.2 8.50001C27.5 7.90001 28.2 7.70001 28.7 8.00001C29.8 8.60001 29.9 10.1 29.9 11.2C29.9 11.4 29.9 11.5 29.9 11.7C30.1 13.4 30 14.8 29.7 16.5C29.5 17 29.1 17.3 28.6 17.3Z" fill="black"/>
<path d="M25.2 22.3C25.1 22.3 25 22.3 24.9 22.3H24.7C24.3 22.2 24 21.9 23.9 21.5C23.8 21.1 23.9 20.7 24.1 20.4C24.3 20.2 24.4 20 24.5 19.8C24.7 19.5 24.9 19.2 25.2 18.9C26.4 17.5 28.5 15.9 30.7 15.9C31.3 15.8 31.8 16.4 31.8 17C31.8 17.6 31.3 18.1 30.7 18.1C29.4 18.1 27.8 19.3 26.9 20.3C26.7 20.5 26.6 20.7 26.5 20.9C26.4 21 26.3 21.2 26.2 21.3V21.4C26.2 21.9 25.7 22.3 25.2 22.3Z" fill="black"/>
<path d="M50.3 36.2C49.7 36.2 49.2 35.8 49.2 35.2C49.1 34 49.5 32.9 49.8 31.9C50 31.3 50.2 30.8 50.3 30.2C50.5 29 50.3 27.6 50.2 26.3C50.2 25.9 50.1 25.4 50.1 25C50 24.4 50.5 23.8 51.1 23.8C51.7 23.7 52.3 24.2 52.3 24.8C52.3 25.2 52.4 25.6 52.4 26C52.6 27.5 52.7 29 52.5 30.5C52.4 31.2 52.1 31.9 51.9 32.6C51.6 33.5 51.3 34.2 51.4 34.9C51.5 35.6 51.1 36.2 50.3 36.2C50.4 36.2 50.4 36.2 50.3 36.2Z" fill="black"/>
<path d="M33.3 52.6C32.6 52.6 31.9 52.3 31.3 51.9C28.9 49.9 28.1 44.5 28.1 42.7C28.1 42.1 28.6 41.6 29.2 41.6C29.8 41.6 30.3 42.1 30.3 42.7C30.3 44.7 31.2 49 32.7 50.1C33 50.4 33.3 50.4 33.5 50.3C34.2 50.2 34.7 49.9 34.8 49.7C35.1 49.3 34.8 48.2 34.5 47.1C34.4 46.8 34.3 46.4 34.2 46.1C34 45.5 34.4 44.9 35 44.7C35.6 44.5 36.2 44.9 36.4 45.5C36.5 45.8 36.6 46.2 36.7 46.5C37.1 48.1 37.6 49.6 36.8 50.8C36.3 51.6 35.4 52.2 34 52.5C33.7 52.6 33.5 52.6 33.3 52.6Z" fill="black"/>
<path d="M32.7 48.5L32.1 46.3L32.4 47.4H31.3C31.3 47.1 31 44.1 30.9 43C30.8 42.4 30.8 42 30.8 42C30.8 41.4 31.3 40.9 31.9 40.9C32.5 40.9 33 41.4 33 42C33 42.1 33 42.4 33.1 42.8C33.6 48.3 33.6 48.3 32.7 48.5Z" fill="black"/>
<path d="M42.3 31.7C43.1 29.6 46.8 29.7 47.1 32C47.3 33.3 46 34.4 44.7 34.5C43 34.6 41.6 33.5 42.3 31.7Z" fill="black"/>
<path d="M28.3 24.5C26.1 24.4 25.4 27.4 27.4 28.3C30.1 29.5 31.6 24.2 28.1 24.5" fill="black"/>
<path d="M35.1 39.3C34.4 39.3 34 39 33.8 38.9C33.4 38.6 33 38.1 32.9 37.5C31.9 38 30.4 38 29.5 37.4C29 37 27.9 36 29 34C30.1 32 32.3 31.5 34.6 32.6C36 33.3 37.9 34.3 38.2 36C38.3 36.6 38.1 37.6 37 38.5C36.2 39.1 35.6 39.3 35.1 39.3ZM35 36.8C35 36.9 35.1 37 35.1 37C35.1 37 35.2 37 35.5 36.8C35.9 36.5 35.9 36.3 35.9 36.3C35.9 36.3 35.9 36.2 35.7 36C35.7 36.3 35.4 36.7 35 36.8ZM30.8 35.5C31 35.6 31.2 35.6 31.5 35.5C31.5 35.2 31.6 34.9 31.9 34.7C32.4 34.3 33.1 34.3 33.5 34.8L33.6 34.9C33.7 34.8 33.8 34.8 34 34.7C33.9 34.7 33.9 34.6 33.8 34.6C32.9 34.2 31.7 33.9 31.1 35.1C30.9 35.3 30.8 35.4 30.8 35.5Z" fill="black"/>
<path d="M31.3 47.6C30.2 47.6 29.1 47.3 28.3 46.9C27.2 46.3 26.5 45.5 26 44.6C25.9 44.4 25.9 44.2 25.9 44C25.8 43.8 25.8 43.5 25.9 43.3C26.2 42.3 27.1 42.4 27.2 42.4C27.5 42.4 28.2 42.7 28.2 43.7C28.2 43.7 28.2 43.7 28.2 43.8C28.4 44.2 28.8 44.6 29.4 44.9C30.5 45.5 32.6 45.5 33.3 44.7C33.7 44.2 34.4 44.2 34.9 44.6C35.4 45 35.4 45.7 35 46.2C34.1 47.1 32.7 47.6 31.3 47.6Z" fill="black"/>
<path d="M5.3 71.5C5.1 71.5 4.9 71.5 4.6 71.4C4.2 71.3 4 71 3.8 70.6C3.4 70.7 3 70.7 2.6 70.5C2.2 70.3 1.9 69.9 1.9 69.4C1.9 68 1.9 66.3 1.6 64.6C1.5 64.3 1.5 64.1 1.4 63.8C1.1 62.5 0.800004 61.4 1.1 59.8C1.4 58.1 1.4 56.5 1.5 54.7C1.6 52.9 1.7 51 2 49.2C2.2 48.1 2.4 47.1 2.6 46C2.8 44.7 3.1 43.5 3.3 42.2C3.8 38.8 4.6 36.3 5.6 34.4C8.5 29.1 14.2 28.1 19.2 27.2L20.6 27C20.9 26.9 21.2 27 21.5 27.2C21.8 27.4 21.9 27.7 21.9 28C21.9 28.6 21.7 29.1 21.2 29.4C20.8 29.7 20.2 29.6 19.9 29.3C19.8 29.3 19.7 29.3 19.7 29.3C14.8 30.2 10.1 31 7.7 35.4C6.8 37.1 6.1 39.4 5.6 42.5C5.4 43.8 5.2 45.1 4.9 46.3C4.7 47.4 4.5 48.4 4.3 49.5C4 51.2 3.9 53 3.9 54.7C3.8 56.5 3.7 58.3 3.5 60.1C3.3 61.2 3.5 62.1 3.8 63.2C3.9 63.5 3.9 63.7 4 64C4.2 64.9 4.3 65.9 4.4 66.8C4.5 66.8 4.7 66.8 4.8 66.8C5.4 66.9 5.8 67.4 5.7 68C5.7 68.1 5.7 68.2 5.8 68.4C5.9 68.2 6 68 6 67.9L6.1 67.6C6.3 67.2 6.7 67 7.1 66.9C7.5 66.9 7.9 67.1 8.1 67.5C8.3 67.9 8.4 68 8.5 68.1C8.7 68 8.8 67.7 8.7 67C8.4 65.7 8.1 64.5 7.8 63.2C7.6 62.3 7.4 61.3 7.2 60.4L7 59.7C6.6 57.9 6.1 55.9 6.5 53.9C6.8 52.8 7.2 51.6 7.7 50.5C8 50 8.3 49.6 8.6 49.3C8.8 49 9 48.8 9.1 48.6C9.4 48 10 47.8 10.6 48.1C11.2 48.4 11.4 49 11.1 49.6C10.9 50.1 10.6 50.4 10.3 50.8C10.1 51.1 9.9 51.3 9.7 51.6C9.3 52.5 8.9 53.5 8.7 54.5C8.3 56 8.8 57.6 9.2 59.2L9.4 59.9C9.6 60.8 9.8 61.8 10 62.7C10.3 63.9 10.5 65.2 10.8 66.4C11.3 68.3 10.5 69.3 9.8 69.8C9.1 70.3 8.4 70.3 8 70.3C7.7 70.2 7.5 70.1 7.3 70C6.7 71 6.1 71.5 5.3 71.5Z" fill="black"/>
<path d="M37.8 47.5C37 47.5 36.1 47.4 35.5 47.1C33 46 32.2 43.9 31.6 42C29.9 43.2 27.2 44.6 24.9 44C23.9 43.7 22.6 43 21.9 40.9C21.3 39.1 21.4 37.2 21.5 35.4C21.5 34.9 21.6 34.4 21.6 33.9C21.6 32.6 21.5 31.3 21.4 29.9C21.3 29.3 21.3 28.8 21.3 28.2C21 25.7 21 23.1 21 20.6C21 17.8 20.9 14.9 20.7 12C20.7 11.9 20.1 3.29999 23.5 0.899991C24.2 0.399991 25.4 -9.20892e-06 27.1 0.799991C29.7 2.09999 31.2 5.59999 32.2 8.19999C32.3 8.49999 32.5 8.89999 32.6 9.19999C33.2 10.6 33.8 12.1 34.3 13.6C34.4 13.9 34.5 14.2 34.6 14.5C38.4 14 42.2 15.5 45.5 17.2C46.1 17.5 46.7 18.1 47.2 18.6C47.5 18.9 48.1 19.5 48.3 19.6C48.5 19.6 49.2 19.1 49.5 18.9C49.7 18.8 49.9 18.6 50 18.5C52 17.3 53.7 16.4 55.3 15.7C58.3 14.4 63.2 12.3 66.7 14.1C67.9 14.8 68.8 15.8 69.1 17.1C69.9 20.7 66.9 25.1 66.3 26C64.4 28.6 61.8 31.1 58.3 33.4C56.3 34.8 54.1 34.7 52.1 34.5C50.8 36.9 49.3 39.5 47.3 41.5C46.9 41.9 46.5 42.4 46 42.8C44.9 44 43.7 45.2 42.5 46.1C41.4 47 39.6 47.5 37.8 47.5ZM32.2 39C32.3 39 32.4 39 32.5 39C32.9 39.1 33.1 39.4 33.3 39.7C33.4 40 33.5 40.4 33.6 40.7C34.2 42.6 34.7 44.2 36.4 45C37.6 45.5 40.1 45.2 41.2 44.3C42.3 43.5 43.3 42.4 44.4 41.3C44.9 40.8 45.3 40.3 45.7 39.9C47.5 38.1 48.8 35.7 50.1 33.4L50.4 32.8C50.6 32.4 51 32.2 51.5 32.2H51.7C53.7 32.4 55.5 32.6 57 31.6C60.2 29.4 62.7 27.1 64.4 24.7C65.9 22.6 67.3 19.5 66.9 17.6C66.7 16.9 66.3 16.4 65.7 16C63.1 14.6 58.7 16.6 56.2 17.6C54.6 18.3 53 19.1 51.1 20.3C51 20.4 50.8 20.5 50.7 20.6C49.9 21.1 48.9 21.9 47.8 21.7C46.9 21.5 46.2 20.8 45.5 20.1C45.1 19.7 44.7 19.3 44.4 19.2C41.5 17.8 38.3 16.5 35.2 16.7C35.1 17.1 34.9 17.4 34.5 17.5C34 17.7 33.4 17.5 33.1 17.1C32.7 17.2 32.4 17.3 32 17.5C31.4 17.8 30.8 17.5 30.5 16.9C30.2 16.3 30.5 15.7 31.1 15.4C31.5 15.2 31.9 15.1 32.3 14.9C32.2 14.7 32.2 14.5 32.1 14.3C31.5 12.9 31 11.4 30.4 9.99999C30.3 9.69999 30.1 9.39999 30 8.99999C29.1 6.79999 27.9 3.69999 26 2.79999C25.2 2.39999 24.8 2.59999 24.7 2.69999C23.1 3.79999 22.7 9.19999 22.9 11.7C23.2 14.6 23.2 17.6 23.2 20.4C23.2 22.8 23.2 25.4 23.4 27.8C23.4 28.4 23.5 28.9 23.5 29.5C23.6 30.9 23.7 32.3 23.7 33.7C23.7 34.2 23.7 34.8 23.6 35.3C23.5 36.9 23.4 38.5 23.9 39.9C24.2 40.8 24.7 41.4 25.4 41.5C27 41.9 29.5 40.5 31.4 39C31.6 39.1 31.9 39 32.2 39Z" fill="black"/>
</svg>
