<svg width="188" height="188" viewBox="0 0 188 188" fill="none" xmlns="http://www.w3.org/2000/svg">
<mask id="mask0" mask-type="alpha" maskUnits="userSpaceOnUse" x="0" y="0" width="188" height="188">
<circle cx="94" cy="94" r="93.5" fill="#C4C4C4" stroke="black"/>
</mask>
<g mask="url(#mask0)">
<ellipse cx="94" cy="94" rx="109" ry="103" fill="white"/>
</g>
<path d="M129.525 94.2903C129.026 94.3952 128.527 94.5001 128.226 94.3044C126.822 93.8221 125.958 92.19 126.446 90.792C128.145 85.2524 130.053 80.7054 132.315 76.6022L132.512 76.3017C133.841 73.9495 135.905 70.1469 139.356 70.4579C140.956 70.6396 142.017 71.9711 142.081 73.5124C141.843 74.858 140.805 76.1127 139.506 76.1267C139.06 76.4797 138.468 77.3814 137.534 79.1324L137.389 79.6812C135.325 83.4837 133.561 87.482 131.81 92.7735C131.415 93.3746 130.522 94.0806 129.525 94.2903Z" fill="#343A40"/>
<path d="M61.9778 83.8772C61.7284 83.9296 61.4791 83.9821 61.4791 83.9821C59.9307 84.0485 58.6202 82.7694 58.5565 81.2281C58.5742 77.5968 57.9481 74.6191 56.9161 70.9494C56.8118 70.4532 56.7074 69.9569 56.6031 69.4606C56.4466 68.7162 56.0292 66.731 55.3739 66.0915C54.2199 65.5568 53.4082 64.1728 53.8954 62.7748C54.3304 61.1287 55.9716 60.2654 57.375 60.7476C60.431 61.6597 61.463 65.3294 62.0369 68.059C62.1413 68.5552 62.1934 68.8034 62.2978 69.2997C63.6835 73.4132 64.1645 76.9396 64.3034 81.3153C64.0656 82.6609 63.2246 83.615 61.9778 83.8772Z" fill="#343A40"/>
<path d="M56.1082 98.0669C55.8588 98.1194 55.6094 98.1718 55.3601 98.2242L54.8613 98.3291C53.8117 98.2907 52.9071 97.7036 52.449 96.7634C51.991 95.8233 52.0316 94.7783 52.3738 93.929C52.7682 93.3279 52.9132 92.7791 53.0583 92.2304C53.4005 91.3811 53.7427 90.5319 54.3342 89.6301C56.5962 85.527 60.998 80.4557 66.484 79.3022C67.928 78.7394 69.4879 79.9661 69.8009 81.455C70.114 82.9438 69.128 84.4467 67.6319 84.7613C64.3901 85.4429 61.0264 89.2595 59.3039 92.2128C58.9095 92.8139 58.7645 93.3626 58.6195 93.9114C58.4223 94.2119 58.2772 94.7606 58.0801 95.0612L58.1322 95.3094C58.3931 96.5501 57.355 97.8048 56.1082 98.0669Z" fill="#343A40"/>
<path d="M125.951 119.398C124.455 119.713 122.999 118.983 122.686 117.494C121.811 114.568 122.234 111.629 122.46 108.99C122.646 107.397 122.884 106.051 122.82 104.51C122.693 101.427 121.464 98.0581 120.536 94.8847C120.327 93.8922 119.817 92.7039 119.608 91.7113C119.046 90.2749 119.98 88.5239 121.476 88.2093C122.92 87.6466 124.677 88.5727 124.99 90.0616C125.199 91.0541 125.657 91.9943 125.866 92.9868C127.147 96.6041 128.179 100.274 128.463 104.101C128.579 105.89 128.196 107.784 128.062 109.626C127.784 112.017 127.401 113.911 128.015 115.596C128.63 117.28 127.946 118.979 125.951 119.398C126.2 119.346 126.2 119.346 125.951 119.398Z" fill="#343A40"/>
<path d="M92.1155 169.007C90.3699 169.374 88.4678 168.996 86.763 168.318C79.7347 164.614 74.9224 151.634 73.9833 147.167C73.6702 145.678 74.6562 144.176 76.1524 143.861C77.6485 143.546 79.1562 144.525 79.4693 146.014C80.5128 150.977 85.0005 161.175 89.3149 163.118C90.2195 163.705 90.9676 163.548 91.4142 163.195C93.1076 162.58 94.1979 161.573 94.3429 161.024C94.8823 159.874 93.5603 157.302 92.2382 154.73C91.8324 154.038 91.3743 153.098 90.9684 152.406C90.1566 151.022 90.841 149.323 92.2329 148.512C93.6247 147.701 95.3296 148.379 96.1414 149.763C96.5473 150.455 97.0053 151.396 97.4112 152.088C99.2434 155.848 101.273 159.308 99.9041 162.705C99.0746 164.952 97.1434 166.913 93.8088 168.392C93.1129 168.797 92.6142 168.902 92.1155 169.007Z" fill="#343A40"/>
<path d="M88.4801 159.148L85.8361 154.003L87.1581 156.575L84.4151 157.152C84.2586 156.408 81.9453 149.121 81.122 146.444C80.5596 145.007 80.3509 144.015 80.3509 144.015C80.0378 142.526 81.0238 141.023 82.52 140.708C84.0162 140.394 85.5238 141.372 85.8369 142.861C85.8891 143.109 86.0456 143.854 86.5036 144.794C90.6201 158.179 90.6201 158.179 88.4801 159.148Z" fill="#343A40"/>
<path d="M103.654 112.426C104.553 106.796 113.832 105.104 115.78 110.654C116.957 113.775 114.289 117.186 111.099 118.116C106.912 119.256 102.847 117.26 103.654 112.426Z" fill="#343A40"/>
<path d="M64.9863 101.901C59.4481 102.806 59.2678 110.617 64.7246 111.802C72.0835 113.364 73.0587 99.426 64.4875 102.006" fill="#343A40"/>
<path d="M89.6648 135.06C87.9193 135.427 86.7653 134.893 86.2144 134.749C85.0604 134.215 83.8021 133.184 83.2397 131.747C81.0069 133.512 77.2665 134.299 74.7091 133.282C73.2536 132.551 69.9889 130.647 71.6884 125.107C73.3879 119.568 78.613 117.173 84.9223 118.697C88.7786 119.7 94.0383 121.185 95.6734 125.246C96.2358 126.683 96.2588 129.269 93.9853 132.079C92.3035 133.987 90.9116 134.798 89.6648 135.06ZM88.1111 128.909C88.1633 129.157 88.4648 129.353 88.4648 129.353C88.4648 129.353 88.7142 129.301 89.3579 128.647C90.1989 127.693 90.0945 127.197 90.0945 127.197C90.0945 127.197 90.0423 126.948 89.4393 126.557C89.5958 127.301 89.0564 128.451 88.1111 128.909ZM76.9596 127.885C77.5105 128.029 78.0092 127.924 78.7051 127.518C78.5486 126.774 78.6414 125.977 79.2852 125.324C80.3233 124.069 82.0688 123.702 83.3272 124.733L83.6287 124.929C83.8259 124.628 84.0752 124.576 84.5218 124.223C84.2724 124.275 84.2203 124.027 83.9709 124.079C81.5179 123.559 78.369 123.443 77.499 126.736C77.1046 127.337 76.9074 127.637 76.9596 127.885Z" fill="#343A40"/>
<path d="M100.676 153.992C98.681 154.412 96.3846 154.635 94.7319 154.206C87.9239 152.787 84.8333 147.995 82.3458 143.595C78.7327 147.464 72.7303 152.354 66.6819 152.071C64.0318 151.851 60.4248 150.795 57.5836 145.951C55.1483 141.8 54.4063 137.032 53.7165 132.513C53.4557 131.273 53.4442 129.98 53.1833 128.739C52.505 125.513 51.5774 122.34 50.5976 118.918C50.0352 117.482 49.7743 116.241 49.4613 114.752C47.4088 108.706 46.0523 102.254 44.7479 96.0507C43.287 89.1027 41.5246 81.959 39.5128 74.8678C39.4607 74.6196 33.4775 53.594 40.7037 45.856C42.1883 44.2483 44.972 42.6265 49.6286 43.7203C56.7903 45.5829 62.3569 53.4814 66.207 59.4088C66.6129 60.1008 67.3203 60.9885 67.7262 61.6805C69.9529 64.8399 72.2317 68.2474 74.2611 71.7074C74.667 72.3994 75.0729 73.0914 75.4788 73.7834C84.6937 70.5503 94.9522 72.28 104.068 74.7682C105.721 75.198 107.53 76.3723 109.038 77.3508C109.942 77.9379 111.752 79.1122 112.303 79.2555C112.801 79.1506 114.286 77.5429 114.93 76.8893C115.376 76.5363 115.771 75.9352 115.968 75.6346C120.329 71.6083 124.099 68.4836 127.723 65.9078C134.526 61.109 145.649 53.3289 155.316 55.9603C158.673 57.0681 161.439 59.0777 162.866 62.1462C166.739 70.6598 161.554 83.151 160.527 85.6989C157.146 93.1467 151.967 100.714 144.439 108.256C140.182 112.778 134.644 113.684 129.552 114.236C127.563 120.873 125.179 128.111 121.235 134.123C120.446 135.325 119.71 136.775 118.672 138.03C116.555 141.585 114.188 145.192 111.666 148.054C109.392 150.864 105.165 153.048 100.676 153.992ZM82.2768 135.836C82.5261 135.784 82.7755 135.732 83.0248 135.679C84.0745 135.717 84.7297 136.357 85.385 136.997C85.7909 137.689 86.2489 138.629 86.6548 139.321C89.1423 143.721 91.2239 147.429 95.8805 148.523C99.1337 149.134 105.211 147.079 107.485 144.269C109.81 141.707 111.73 138.453 113.899 135.147C114.885 133.644 115.622 132.194 116.41 130.991C119.96 125.581 121.949 118.944 123.991 112.555L124.426 110.909C124.716 109.812 125.609 109.106 126.856 108.843L127.355 108.739C132.446 108.186 137.039 107.739 140.258 104.471C147.09 97.334 152.124 90.316 155.111 83.4692C157.756 77.4718 159.629 69.0454 157.641 64.5404C156.777 62.9083 155.518 61.8773 153.814 61.1993C146.6 59.0886 136.671 66.3584 130.959 70.1506C127.334 72.7265 123.762 75.5505 119.65 79.5244C119.453 79.825 119.006 80.178 118.809 80.4785C117.075 82.1387 114.999 84.6481 112.151 84.7286C109.803 84.7042 107.692 83.3342 105.581 81.9643C104.375 81.1814 103.169 80.3986 102.369 80.3077C94.4066 78.3543 85.7487 76.8062 78.1228 78.9279C78.0821 79.9729 77.7399 80.8222 76.7946 81.28C75.6522 82.0385 74.0516 81.8568 73.0948 81.0215C72.1496 81.4794 71.4536 81.8848 70.5605 82.5908C69.2209 83.6498 67.5682 83.22 66.507 81.8884C65.4459 80.5569 65.8809 78.9107 67.2206 77.8517C68.1137 77.1457 69.059 76.6879 69.9521 75.9818C69.5984 75.538 69.494 75.0417 69.1403 74.5979C66.9137 71.4385 64.8843 67.9785 62.6576 64.8191C62.2517 64.1271 61.5965 63.4875 61.1384 62.5474C57.7463 57.5602 53.1365 50.497 47.9291 49.2599C45.7255 48.6868 44.8324 49.3928 44.6352 49.6934C41.2193 53.2618 43.0392 66.8712 44.8423 72.9699C47.1035 80.0087 48.6687 87.4529 50.1296 94.4009C51.3818 100.356 52.7383 106.808 54.4892 112.658C54.8023 114.147 55.3125 115.336 55.6255 116.824C56.6053 120.246 57.5851 123.668 58.3156 127.142C58.5765 128.382 58.8895 129.871 58.901 131.164C59.4864 135.187 60.0719 139.21 62.0491 142.421C63.2668 144.497 64.8267 145.724 66.6244 145.605C70.8229 145.759 76.3265 140.974 80.2818 136.256C80.8327 136.399 81.5287 135.994 82.2768 135.836Z" fill="#343A40"/>
</svg>
